<svg xmlns="http://www.w3.org/2000/svg" width="1040" height="580"><rect width="1040" height="580" fill="#e9eef4"/><rect x="170" y="55" width="700" height="465" rx="7" fill="#fff" stroke="#6b7785" stroke-width="2"/><rect x="170" y="55" width="700" height="48" rx="7" fill="#30475e"/><text x="195" y="86" font-family="Microsoft YaHei,Arial" font-size="21" fill="#fff">直顶头审查</text><text x="205" y="138" font-family="Microsoft YaHei,Arial" font-size="17" font-weight="bold" fill="#203040">审查对象</text><line x1="205" y1="148" x2="835" y2="148" stroke="#c5ced8"/><text x="220" y="184" font-family="Microsoft YaHei,Arial" font-size="16">选择直顶头实体</text><rect x="480" y="159" width="330" height="36" fill="#fff" stroke="#7f8c99"/><text x="495" y="183" font-family="Microsoft YaHei,Arial" font-size="14" fill="#71808c">请选择一个实体</text><text x="205" y="240" font-family="Microsoft YaHei,Arial" font-size="17" font-weight="bold" fill="#203040">审查标准（用户输入）</text><line x1="205" y1="250" x2="835" y2="250" stroke="#c5ced8"/><text x="220" y="290" font-family="Microsoft YaHei,Arial" font-size="16">最小圆角半径（mm）</text><rect x="620" y="270" width="190" height="35" fill="#fff" stroke="#7f8c99"/><text x="638" y="293" font-family="Microsoft YaHei,Arial" font-size="14">0.5     mm</text><text x="220" y="340" font-family="Microsoft YaHei,Arial" font-size="13" fill="#71808c">提示：填 0 时，关闭圆角审查规则；其余规则使用插件内置默认值。</text><line x1="170" y1="434" x2="870" y2="434" stroke="#c5ced8"/><rect x="563" y="458" width="82" height="38" fill="#e9eef4" stroke="#7f8c99"/><rect x="656" y="458" width="82" height="38" fill="#2d6ea3" stroke="#7f8c99"/><rect x="749" y="458" width="82" height="38" fill="#e9eef4" stroke="#7f8c99"/><text x="583" y="483" font-family="Microsoft YaHei,Arial" font-size="14">应用</text><text x="682" y="483" font-family="Microsoft YaHei,Arial" font-size="14" fill="#fff">确定</text><text x="769" y="483" font-family="Microsoft YaHei,Arial" font-size="14">取消</text></svg>
